<svg id="Layer_1" data-name="Layer 1" xmlns="http://www.w3.org/2000/svg" viewBox="0 0 480 82.1"><defs><style>.cls-1{fill:#03a9f4;fill-rule:evenodd;}</style></defs><title>Nebra</title><path class="cls-1" d="M378.06,82h29.29l4.94-13.32h35.83L453.06,82h22.76A20.4,20.4,0,0,0,480,76.55L447.08,0H413.66l-28,64.5L371.48,41.58c7.35-1.84,13.09-7.81,13.09-18.72C384.57,9.2,377.22,0,357.13,0h-65.4c1.62,8.67,3.82,20.58,10.26,27,4.43,4.43,10.83,6.55,16.79,8.08V18.39h26.3c6.66,0,10.22,3.44,10.22,8.84,0,17.21-37.26,6.28-53.3,22.33C295.2,56.35,291.45,72.82,291.45,82h27.33V54.67h25L361,82ZM3,82.1h23.4V30.3h.23L65.92,82.1H93.11c1-1.61,3-5.52,3-7.42V7.44c0-1.84-2.05-5.78-3-7.34H69.71V51.43h-.23L31.47.09H3C1.87,1.94.2,5.24,0,7.43V74.67c0,2,2,5.76,3,7.43ZM107.35,82h76.09c.95-1.54,3-5.51,3-7.33V64.31H131.67V49.61h47.95v-17H131.67V17.69h54.78V7.34c0-1.83-2.06-5.78-3-7.34H107.35c-1,1.68-3,5.46-3,7.46V74.67c0,1.83,2.06,5.79,3,7.33Zm89.18,0c-1-1.56-3-5.5-3-7.34V7.34c0-1.84,2.05-5.78,3-7.34h64.62c16.62,0,26.89,12.36,21.6,22.78-6.46,10.68-20.64,12.72-31.85,14.79a.73.73,0,0,0,0,1.45,113.05,113.05,0,0,1,17.36,4.11c26.14,8.94,25,38.87-9.18,38.87Zm59.69-57.43c0-4.72-3.83-6.86-8.15-6.89H220.85V31.58h27c5.86,0,8.38-3.22,8.38-7Zm3.44,31.23c0-5.6-4.24-8.14-9.41-8.14h-29.4V64.3H250c5.74,0,9.65-3.1,9.65-8.5Zm182-4.13h-23l11.37-31h.23Z"/></svg>